<?xml version="1.0" encoding="UTF-8"?>
<svg width="116px" height="117px" viewBox="0 0 116 117" version="1.1" xmlns="http://www.w3.org/2000/svg" xmlns:xlink="http://www.w3.org/1999/xlink">
    <title>Group 21 Copy 3</title>
    <g id="Trash" stroke="none" stroke-width="1" fill="none" fill-rule="evenodd">
        <g id="Logo-Full-clear-Copy" transform="translate(-217, -192)">
            <g id="Group-2" transform="translate(217, 192)">
                <path d="M0.00391289323,58.3357531 L0.258,58.4627531 L102.909092,58.4630727 C108.29953,58.4630727 112.926219,61.7330676 114.913699,66.3975964 C115.569974,67.4771593 115.955982,68.7543684 115.955982,70.1582856 L115.955982,106.816797 C115.955982,112.251698 111.52137,116.668908 106.065058,116.668908 L9.89483745,116.668908 C4.43852522,116.668908 0.00391289323,112.251698 0.00391289323,106.816797 L0.003,99.6037531 L0,58.4630727 L0.003,58.4627531 L0.00391289323,58.3357531 Z" id="Combined-Shape" fill="#2D6A4F"></path>
                <path d="M58.5629687,9.86293689 L58.5629687,58.3331547 L0,58.3331547 L0,9.86293689 C0,4.41504464 4.4324385,0 9.9017937,0 L48.661175,0 C54.1305302,0 58.5629687,4.41504464 58.5629687,9.86293689" id="Fill-19" fill="#2D6A4F"></path>
                <path d="M115.955982,70.1582856 L115.955982,70.1582856 C115.955982,64.7450381 110.217072,61.2156008 105.369432,63.6623886 L58.5625339,87.5023305 L0.00391289323,58.3357531 L104.086873,58.3357531 C110.640969,58.3357531 115.955982,63.6299091 115.955982,70.1582856" id="Fill-20" fill="#40916C"></path>
            </g>
        </g>
    </g>
</svg>